<?xml version="1.0" encoding="UTF-8" standalone="no"?>
<!-- Generator: Adobe Illustrator 12.0.0, SVG Export Plug-In . SVG Version: 6.00 Build 51448)  -->

<svg
   xmlns:dc="http://purl.org/dc/elements/1.1/"
   xmlns:cc="http://creativecommons.org/ns#"
   xmlns:rdf="http://www.w3.org/1999/02/22-rdf-syntax-ns#"
   xmlns:svg="http://www.w3.org/2000/svg"
   xmlns="http://www.w3.org/2000/svg"
   xmlns:sodipodi="http://sodipodi.sourceforge.net/DTD/sodipodi-0.dtd"
   xmlns:inkscape="http://www.inkscape.org/namespaces/inkscape"
   version="1.1"
   id="Layer_1"
   width="300"
   height="337.65973"
   viewBox="0 0 300 337.65971"
   overflow="visible"
   enable-background="new 0 0 416.603 457.446"
   xml:space="preserve"
   inkscape:version="0.48.1 r9760"
   sodipodi:docname="pirate-head.svg"
   style="overflow:visible"><metadata
   id="metadata3227"><rdf:RDF><cc:Work
       rdf:about=""><dc:format>image/svg+xml</dc:format><dc:type
         rdf:resource="http://purl.org/dc/dcmitype/StillImage" /><dc:title></dc:title></cc:Work></rdf:RDF></metadata><defs
   id="defs3225" /><sodipodi:namedview
   pagecolor="#ffffff"
   bordercolor="#666666"
   borderopacity="1"
   objecttolerance="10"
   gridtolerance="10"
   guidetolerance="10"
   inkscape:pageopacity="0"
   inkscape:pageshadow="2"
   inkscape:window-width="706"
   inkscape:window-height="480"
   id="namedview3223"
   showgrid="false"
   fit-margin-top="0"
   fit-margin-left="0"
   fit-margin-right="0"
   fit-margin-bottom="0"
   inkscape:zoom="0.72532861"
   inkscape:cx="383.68718"
   inkscape:cy="168.82986"
   inkscape:window-x="0"
   inkscape:window-y="0"
   inkscape:window-maximized="0"
   inkscape:current-layer="Layer_1" />
<radialGradient
   id="XMLID_4_"
   cx="289.86081"
   cy="149.981"
   r="136.6702"
   gradientUnits="userSpaceOnUse"
   gradientTransform="matrix(0.93478725,0,0,0.93478725,-8.256378,-3.9696601e-4)">
	<stop
   offset="0"
   style="stop-color:#FFFFFF"
   id="stop3169" />
	<stop
   offset="1"
   style="stop-color:#0071BC"
   id="stop3171" />
</radialGradient>
<path
   d="m 174.33094,74.521777 c -0.21874,-0.01215 -0.44122,-0.01589 -0.65902,-0.02524 -1.27692,-0.05048 -2.55945,-0.0832 -3.84478,-0.09722 -0.24585,-9.35e-4 -0.48796,-0.01963 -0.73381,-0.01963 -0.0823,0 -0.16359,0.0056 -0.24492,0.0056 -0.16358,0 -0.32437,-0.0056 -0.48702,-0.0056 -72.58716,0 -131.64048,59.054253 -131.64048,131.639553 0,72.58716 59.05332,131.64048 131.64048,131.64048 C 240.94669,337.65972 300,278.6064 300,206.01924 300,135.43532 244.15674,77.653312 174.33094,74.521775 z m 42.29912,98.588273 c 0,26.21331 -21.32436,47.53581 -47.53767,47.53581 -26.2133,0 -47.53767,-21.32344 -47.53767,-47.53581 0,-26.08991 21.12713,-47.32921 47.17124,-47.52738 1.06285,0.006 2.12009,0.0355 3.17453,0.0813 24.91022,1.45734 44.72957,22.1769 44.72957,47.44606 z M 168.36139,286.4661 c -33.20084,0 -61.7642,-20.21384 -74.03515,-48.98473 18.11805,21.01402 44.90531,34.35904 74.76615,34.35904 28.28386,0 53.80823,-11.97275 71.82438,-31.09382 -12.98513,27.02283 -40.62585,45.71951 -72.55538,45.71951 z"
   id="path3173"
   inkscape:connector-curvature="0"
   style="fill:url(#XMLID_4_)" />


<g
   id="g3185"
   transform="matrix(0.93478725,0,0,0.93478725,-8.256378,-3.9696601e-4)">
	<linearGradient
   id="XMLID_5_"
   gradientUnits="userSpaceOnUse"
   x1="190.689"
   y1="66.058601"
   x2="295.5246"
   y2="24.5938">
		<stop
   offset="0"
   style="stop-color:#000000"
   id="stop3188" />
		<stop
   offset="1"
   style="stop-color:#636466"
   id="stop3190" />
	</linearGradient>
	<path
   d="M 73.541,90.913 C 136.52,52.187 120.874,-16.661 183.462,3.681 c 32.077,10.17 50.852,38.335 86.058,43.029 7.823,0.783 21.906,-2.347 28.166,2.347 10.953,7.824 0.781,18.777 -3.912,27.382 -4.694,10.171 -7.824,21.906 -14.865,30.512 -7.823,10.17 -17.993,9.388 -29.729,11.735 -43.029,10.17 -83.713,29.729 -128.307,39.118 -21.124,3.912 -43.812,7.824 -64.153,-2.347 -10.17,-5.477 -64.153,-56.33 -43.029,-62.589 5.477,-1.564 19.559,5.477 25.817,6.259 7.042,0.784 27.711,-4.326 34.033,-8.214 z"
   id="path3192"
   inkscape:connector-curvature="0"
   style="fill:url(#XMLID_5_)" />
</g>
<ellipse
   transform="matrix(0.91571759,-0.18770528,0.18770528,0.91571759,-13.885948,33.277094)"
   cx="172.509"
   cy="47.492001"
   rx="15.648"
   ry="17.604"
   id="ellipse3194"
   sodipodi:cx="172.509"
   sodipodi:cy="47.492001"
   sodipodi:rx="15.648"
   sodipodi:ry="17.604"
   style="fill:#ffffff" />
<circle
   cx="166.25"
   cy="45.536999"
   r="4.303"
   id="circle3196"
   sodipodi:cx="166.25"
   sodipodi:cy="45.536999"
   sodipodi:rx="4.303"
   sodipodi:ry="4.303"
   transform="matrix(0.93478725,0,0,0.93478725,-8.256378,-3.9696601e-4)" />
<circle
   cx="177.203"
   cy="42.407001"
   r="4.303"
   id="circle3198"
   sodipodi:cx="177.203"
   sodipodi:cy="42.407001"
   sodipodi:rx="4.303"
   sodipodi:ry="4.303"
   transform="matrix(0.93478725,0,0,0.93478725,-8.256378,-3.9696601e-4)" />
<path
   d="m 153.36834,45.127392 c -1.13296,0.236501 -1.09744,0.851591 -1.21896,2.43699 -0.12153,1.585399 0.36737,1.828444 0.97498,2.072423 0.60854,0.24398 0.81326,-0.759047 1.58446,-0.487024 1.03668,0.365502 1.76862,-0.244914 1.21897,-1.585399 -0.32251,-0.788026 -1.09558,-2.741731 -2.55945,-2.43699 z"
   id="path3200"
   inkscape:connector-curvature="0" />
<path
   d="m 150.07695,52.714125 c 0.45711,1.462007 2.74267,1.553616 2.37623,-0.457111 0.82261,1.920053 3.65689,2.19488 3.15397,-0.868417 0.86842,2.742665 2.97076,2.28462 2.60619,-0.731939 0,0 2.46784,3.930781 2.83427,-0.365502"
   id="path3202"
   inkscape:connector-curvature="0"
   style="fill:none;stroke:#000000;stroke-width:0.46739364" />
<path
   d="m 161.41031,54.026566 c -0.50946,-1.446116 -2.79875,-1.457333 -2.3594,0.540307 -0.88992,-1.889205 -3.73261,-2.06401 -3.12219,0.977788 -0.9647,-2.709014 -3.05021,-2.178989 -2.57721,0.824482 0,0 -2.60712,-3.841041 -2.82119,0.464589"
   id="path3204"
   inkscape:connector-curvature="0"
   style="fill:none;stroke:#000000;stroke-width:0.46739364" />
<path
   d="m 184.93984,71.207956 c -0.70389,-0.777743 -3.03712,-0.947874 -4.55522,0.202849 l -17.16082,-3.484887 16.36999,-8.942175 c 0.6637,0.22061 1.24608,-0.224349 1.24608,-0.224349 2.67816,-0.783352 4.23365,-0.924504 3.78869,-2.753883 -0.44777,-1.829379 -0.75157,-2.101402 -2.17806,-1.73403 -0.41598,-1.251681 -0.84878,-1.749922 -2.05092,-1.511551 -0.96003,0.191631 -2.1874,1.875183 -2.17992,3.640996 L 158.77328,67.021979 134.39216,62.07228 c -1.34984,-2.227598 -1.92473,-3.566213 -3.512,-2.685644 -1.64522,0.914222 -1.82844,1.279724 -1.0965,2.559448 -1.09651,0.731003 -1.46295,1.279724 -0.91423,2.376229 0.53096,1.063788 3.29232,1.937814 5.12638,0.654351 l 20.79153,4.221499 -16.42047,8.970219 c -2.53795,-0.438416 -3.91115,-0.867483 -4.28506,0.89833 -0.38887,1.840596 -0.23276,2.219185 1.21429,2.506165 -0.16733,1.306832 0.007,1.942488 1.19465,2.248163 1.14418,0.294458 3.58304,-1.194658 3.84759,-3.395147 l 18.90046,-10.324725 20.18673,4.098107 c 0.2552,0.321567 0.59733,0.467394 0.59733,0.467394 2.04719,1.895748 2.97076,3.156776 4.30844,1.834052 1.33861,-1.323658 1.4162,-1.724682 0.3683,-2.760426 0.85814,-0.997418 1.06285,-1.624661 0.24024,-2.532339 z"
   id="path3206"
   inkscape:connector-curvature="0"
   style="fill:#ffffff" />
<linearGradient
   id="XMLID_6_"
   gradientUnits="userSpaceOnUse"
   x1="204.9292"
   y1="375.57281"
   x2="210.4668"
   y2="458.6369">
	<stop
   offset="0"
   style="stop-color:#967348"
   id="stop3209" />
	<stop
   offset="1"
   style="stop-color:#6C5635"
   id="stop3211" />
</linearGradient>


</svg>